USFL
nRows=283
nColumns=2
inDegrees=yes
endheader
time	tib_ant_r	
2.82744	 43.690723	
2.8607	 43.789088	
2.89397	 43.843731	
2.92723	 43.863030	
2.9605	 43.863492	
2.99376	 43.823578	
3.02702	 43.789120	
3.06029	 43.814237	
3.09355	 43.797992	
3.12682	 43.799206	
3.16008	 43.794846	
3.19334	 43.784165	
3.22661	 43.779558	
3.25987	 43.786450	
3.29314	 43.759344	
3.3264	 43.774033	
3.35966	 43.779164	
3.39293	 43.768969	
3.42619	 43.769833	
3.45946	 43.755643	
3.49272	 43.748721	
3.52598	 43.747268	
3.55925	 43.736693	
3.59251	 43.715697	
3.62578	 43.733528	
3.65904	 43.721744	
3.6923	 43.719652	
3.72557	 43.727986	
3.75883	 43.797076	
3.7921	 43.782754	
3.82536	 43.774926	
3.85862	 43.808512	
3.89189	 43.809065	
3.92515	 43.798515	
3.95842	 43.788132	
3.99168	 43.759393	
4.02494	 43.710391	
4.05821	 43.755992	
4.09147	 43.798519	
4.12474	 43.836227	
4.158	 43.832659	
4.19126	 43.798075	
4.22453	 43.810983	
4.25779	 43.766692	
4.29106	 43.746602	
4.32432	 43.744285	
4.35758	 43.738490	
4.39085	 43.746586	
4.42411	 43.792808	
4.45738	 43.826863	
4.49064	 43.811420	
4.5239	 43.815750	
4.55717	 43.814177	
4.59043	 43.781403	
4.6237	 43.778353	
4.65696	 43.764408	
4.69022	 43.788686	
4.72349	 43.750960	
4.75675	 43.707697	
4.79002	 43.570047	
4.82328	 43.282745	
4.85654	 43.114831	
4.88981	 42.792029	
4.92307	 42.387305	
4.95634	 42.122883	
4.9896	 42.093226	
5.02286	 41.663701	
5.05613	 41.298321	
5.08939	 41.043206	
5.12266	 40.484587	
5.15592	 40.375483	
5.18918	 40.162365	
5.22245	 40.013076	
5.25571	 39.932057	
5.28898	 39.764427	
5.32224	 39.802906	
5.3555	 39.627675	
5.38877	 39.369606	
5.42203	 39.232522	
5.4553	 39.247031	
5.48856	 39.189562	
5.52182	 39.207160	
5.55509	 39.227634	
5.58835	 39.243289	
5.62162	 39.225206	
5.65488	 39.241858	
5.68814	 39.306412	
5.72141	 39.263360	
5.75467	 39.247073	
5.78794	 39.228075	
5.8212	 39.438832	
5.85446	 39.513782	
5.88773	 39.374604	
5.92099	 39.504772	
5.95426	 39.616346	
5.98752	 39.606505	
6.02078	 39.546690	
6.05405	 39.579358	
6.08731	 39.456925	
6.12058	 39.397749	
6.15384	 39.353606	
6.1871	 39.005716	
6.22037	 38.988290	
6.25363	 38.920082	
6.2869	 38.855395	
6.32016	 38.821509	
6.35342	 38.864911	
6.38669	 38.902189	
6.41995	 38.972279	
6.45322	 39.014720	
6.48648	 38.992142	
6.51974	 39.085746	
6.55301	 39.197404	
6.58627	 39.427859	
6.61954	 39.234514	
6.6528	 39.210035	
6.68606	 39.175341	
6.71933	 39.214711	
6.75259	 39.240283	
6.78586	 39.233021	
6.81912	 39.193837	
6.85238	 39.134138	
6.88565	 39.201827	
6.91891	 39.065131	
6.95218	 39.058843	
6.98544	 38.981166	
7.0187	 38.867001	
7.05197	 38.775119	
7.08523	 38.809687	
7.1185	 38.774643	
7.15176	 38.765365	
7.18502	 38.745197	
7.21829	 38.693958	
7.25155	 38.692216	
7.28482	 38.463018	
7.31808	 38.450329	
7.35134	 35.220757	
7.38461	 35.164557	
7.41787	 35.157009	
7.45114	 35.069744	
7.4844	 35.024657	
7.51766	 34.964138	
7.55093	 34.976816	
7.58419	 34.917785	
7.61746	 34.890598	
7.65072	 34.754381	
7.68398	 34.728852	
7.71725	 34.770519	
7.75051	 34.831742	
7.78378	 34.823731	
7.81704	 34.771464	
7.8503	 34.683681	
7.88357	 34.666329	
7.91683	 34.691004	
7.9501	 34.709581	
7.98336	 34.749148	
8.01662	 34.685908	
8.04989	 34.661772	
8.08315	 34.510449	
8.11642	 34.411069	
8.14968	 34.458759	
8.18294	 34.329589	
8.21621	 34.215293	
8.24947	 34.164829	
8.28274	 34.072330	
8.316	 33.967534	
8.34926	 33.928561	
8.38253	 33.176926	
8.41579	 33.143659	
8.44906	 33.020962	
8.48232	 32.854965	
8.51558	 32.716743	
8.54885	 32.681827	
8.58211	 32.661416	
8.61538	 32.682023	
8.64864	 32.568322	
8.6819	 32.561014	
8.71517	 32.532037	
8.74843	 32.511472	
8.7817	 32.466140	
8.81496	 32.627782	
8.84822	 32.696172	
8.88149	 32.728688	
8.91475	 32.641477	
8.94802	 32.593248	
8.98128	 32.613366	
9.01454	 32.478709	
9.04781	 32.354293	
9.08107	 32.287107	
9.11434	 32.418917	
9.1476	 32.467665	
9.18086	 32.513442	
9.21413	 32.510119	
9.24739	 32.480669	
9.28066	 32.521045	
9.31392	 32.515843	
9.34718	 32.546971	
9.38045	 32.568797	
9.41371	 32.604447	
9.44698	 32.636013	
9.48024	 32.594598	
9.5135	 32.564707	
9.54677	 32.558509	
9.58003	 32.534094	
9.6133	 32.482362	
9.64656	 32.534731	
9.67982	 32.582317	
9.71309	 32.592513	
9.74635	 32.565741	
9.77962	 32.533158	
9.81288	 32.482163	
9.84614	 32.541295	
9.87941	 32.555037	
9.91267	 32.531692	
9.94594	 32.545492	
9.9792	 32.619208	
10.0125	 32.565766	
10.0457	 32.434138	
10.079	 32.355762	
10.1123	 32.424360	
10.1455	 32.578177	
10.1788	 32.566220	
10.212	 32.619986	
10.2453	 32.575701	
10.2786	 32.543943	
10.3118	 32.515864	
10.3451	 32.451060	
10.3784	 32.509979	
10.4116	 32.622565	
10.4449	 32.721081	
10.4782	 32.850459	
10.5114	 33.080905	
10.5447	 33.326410	
10.578	 33.453029	
10.6112	 33.801959	
10.6445	 33.888518	
10.6777	 34.069290	
10.711	 34.255319	
10.7443	 34.266228	
10.7775	 34.269523	
10.8108	 34.294170	
10.8441	 34.458652	
10.8773	 34.695185	
10.9106	 34.795958	
10.9439	 34.863135	
10.9771	 34.934852	
11.0104	 35.096864	
11.0436	 35.293746	
11.0769	 35.485729	
11.1102	 35.628243	
11.1434	 35.824485	
11.1767	 35.928063	
11.21	 36.094821	
11.2432	 36.400168	
11.2765	 36.658253	
11.3098	 36.677027	
11.343	 36.676178	
11.3763	 36.896210	
11.4096	 36.992247	
11.4428	 37.134696	
11.4761	 37.277631	
11.5093	 37.469846	
11.5426	 37.575747	
11.5759	 37.573294	
11.6091	 37.558853	
11.6424	 37.715458	
11.6757	 37.695522	
11.7089	 37.705547	
11.7422	 37.780138	
11.7755	 37.874155	
11.8087	 37.900403	
11.842	 37.934197	
11.8752	 38.059392	
11.9085	 38.137760	
11.9418	 38.154544	
11.975	 38.243892	
12.0083	 38.348706	
12.0416	 38.328549	
12.0748	 38.397966	
12.1081	 38.490933	
12.1414	 38.534092	
12.1746	 38.554925	
12.2079	 38.604576	
